<?xml version="1.0" standalone="no"?>
<!DOCTYPE svg PUBLIC "-//W3C//DTD SVG 20010904//EN"
 "http://www.w3.org/TR/2001/REC-SVG-20010904/DTD/svg10.dtd">
<svg version="1.0" xmlns="http://www.w3.org/2000/svg"
 width="560.000000pt" height="373.000000pt" viewBox="0 0 560.000000 373.000000"
 preserveAspectRatio="xMidYMid meet">

<g transform="translate(0.000000,373.000000) scale(0.100000,-0.100000)"
fill="#000000" stroke="none">
<path d="M4679 3679 c-95 -52 -156 -127 -174 -216 -6 -30 -2 -35 62 -88 37
-31 96 -70 130 -86 57 -29 66 -30 135 -24 l74 7 12 -39 c117 -365 255 -862
286 -1032 28 -151 20 -215 -54 -395 -138 -340 -386 -696 -620 -891 -114 -95
-227 -163 -490 -294 -339 -169 -700 -320 -940 -393 -170 -51 -511 -97 -745
-99 l-130 -1 117 -38 c483 -159 1113 -100 1788 167 269 106 556 257 700 368
213 164 539 618 659 920 75 188 95 281 96 445 0 158 -7 193 -81 386 -51 134
-106 210 -186 259 -99 59 -116 80 -173 200 -89 186 -158 432 -135 475 26 48 3
227 -33 261 -26 24 -158 102 -208 123 -34 14 -37 13 -90 -15z"/>
<path d="M4622 3101 c-26 -36 -32 -54 -32 -95 0 -66 -18 -209 -32 -261 l-11
-40 -10 38 c-5 20 -12 37 -15 37 -4 0 -25 -46 -46 -101 -101 -260 -334 -562
-596 -772 -298 -239 -644 -419 -1105 -573 -771 -258 -1323 -332 -1782 -239
-69 14 -226 59 -350 99 -249 82 -256 80 -99 -25 207 -138 474 -246 734 -296
l140 -28 26 -52 c60 -122 67 -130 153 -150 103 -24 385 -24 562 1 574 78 1253
299 1667 541 160 94 262 172 384 294 214 215 353 461 435 771 18 70 54 169 80
225 57 119 62 152 41 270 -15 91 -72 301 -98 366 l-14 34 -32 -44z"/>
<path d="M460 2057 c0 -2 36 -30 80 -61 61 -44 86 -57 109 -54 26 3 16 10 -80
60 -60 32 -109 56 -109 55z"/>
</g>
</svg>
